<svg viewBox="0 0 1104 573" fill="none" xmlns="http://www.w3.org/2000/svg"><path fill="#2F2A95" d="m288.559 373.926 535.186 29.536-9.313 168.743-535.186-29.536z"/><path d="m321.048 508.921 5-90.602 35.047 1.934c4.413.244 8.312 1.154 11.697 2.729 3.39 1.489 6.184 3.553 8.382 6.191 2.284 2.644 3.934 5.773 4.95 9.388 1.016 3.614 1.402 7.628 1.158 12.042-.243 4.413-1.069 8.36-2.476 11.841s-3.392 6.41-5.953 8.785c-2.475 2.381-5.482 4.168-9.019 5.362-3.533 1.107-7.507 1.538-11.92 1.295l-15.446-.853-1.82 32.97-19.6-1.082Zm22.286-47.594 10.514.58c4.587.254 7.793-.437 9.619-2.073 1.913-1.63 2.979-4.436 3.199-8.416l.215-3.894c.219-3.981-.532-6.887-2.253-8.718-1.635-1.826-4.746-2.866-9.333-3.119l-10.514-.58-1.447 26.22Zm86.157 55.142c-12.115-.669-20.844-5.274-26.189-13.815-5.257-8.536-7.478-20.202-6.661-35 .817-14.797 4.307-26.149 10.472-34.054 6.252-7.901 15.435-11.517 27.55-10.849 12.115.669 20.801 5.271 26.059 13.807 5.344 8.541 7.608 20.21 6.791 35.008-.817 14.797-4.351 26.146-10.602 34.047-6.165 7.906-15.305 11.524-27.42 10.856Zm.867-15.707c5.538.306 9.458-1.517 11.759-5.47 2.393-4.034 3.792-9.729 4.198-17.084l.867-15.707c.401-7.269-.368-12.996-2.307-17.183-1.848-4.268-5.54-6.555-11.079-6.861-5.538-.305-9.503 1.559-11.896 5.593-2.301 3.953-3.653 9.564-4.054 16.832l-.874 15.836c-.401 7.269.322 13.038 2.17 17.306 1.939 4.187 5.678 6.433 11.216 6.738Zm111.253 20.332-65.291-3.603.938-17.005 45.367-55.304-40.888-2.256.881-15.966 62.695 3.46-.939 17.004-45.366 55.304 43.484 2.4-.881 15.966Zm37.216-58.358-1.428-.079-3.323 60.229-16.615-.917 5-90.603 23.364 1.29 17.315 61.367 1.428.079 3.324-60.228 16.615.917-5.001 90.602-23.364-1.29-17.315-61.367Zm106.633 66.297-4.508-22.122-24.792-1.369-6.785 21.499-19.73-1.089 29.533-89.248 27.518 1.519 19.533 91.956-20.769-1.146Zm-13.562-72.748-1.038-.058-10.718 33.781 18.692 1.032-6.936-34.755Zm65.836 15.221-1.428-.079-3.324 60.228-16.615-.917 5.001-90.602 23.364 1.29 17.315 61.367 1.428.079 3.323-60.229 16.615.917-5 90.602-23.364-1.289-17.315-61.367Zm17.034-34.995-11.115-6.212 14.241-24.472 15.528 8.799-18.654 21.885Z" fill="#fff"/><path fill="#FF674D" d="m283.492 217.016 535.99-3.394 1.07 168.997-535.99 3.394z"/><path d="m370.107 309.04.88-25.357-1.17.008-16.605 46.776-17.195-46.562-1.17.007 1.201 25.343.256 40.429-16.9.107-.574-90.738 23.009-.145 11.373 30.478 1.04-.006 10.987-30.621 21.449-.135.575 90.738-16.9.107-.256-40.429Zm34.2 40.214-.575-90.738 57.979-.367.101 15.989-38.479.244.132 20.799 37.179-.235.101 15.99-37.179.235.139 21.97 38.479-.244.102 15.99-57.979.367Zm79.572-.504-.574-90.738 57.979-.367.101 15.989-38.479.244.131 20.8 37.18-.236.101 15.99-37.179.235.139 21.97 38.479-.244.101 15.99-57.979.367Zm117.449-75.495.473 74.748-19.499.124-.474-74.749-26.129.166-.101-15.99 71.758-.454.101 15.989-26.129.166Zm57.372-16.354.364 57.459c.018 2.86.121 5.503.31 7.928.275 2.339.807 4.329 1.598 5.97.877 1.642 2.141 2.934 3.794 3.876 1.652.857 3.908 1.276 6.768 1.258 2.86-.018 5.111-.466 6.752-1.343 1.64-.964 2.846-2.272 3.615-3.923.856-1.652 1.364-3.649 1.522-5.99.245-2.428.358-5.072.34-7.932l-.364-57.459 19.5-.123.347 54.858c.04 6.24-.359 11.703-1.196 16.388-.75 4.685-2.286 8.595-4.606 11.73-2.32 3.134-5.555 5.495-9.705 7.081-4.15 1.587-9.519 2.401-16.105 2.442-6.587.042-11.965-.704-16.135-2.238-4.169-1.533-7.434-3.853-9.794-6.958-2.36-3.105-3.988-6.995-4.884-11.669-.809-4.675-1.234-10.132-1.274-16.372l-.347-54.859 19.5-.124Zm63.377 90.341-.574-90.738 35.099-.222c4.42-.028 8.368.64 11.843 2.005 3.475 1.278 6.39 3.166 8.746 5.664 2.442 2.498 4.282 5.52 5.517 9.066 1.236 3.545 1.868 7.528 1.896 11.948.028 4.42-.553 8.41-1.744 11.971-1.191 3.561-2.992 6.606-5.402 9.134-2.324 2.529-5.215 4.497-8.673 5.905-3.459 1.322-7.398 1.997-11.818 2.025l-15.469.098.209 33.02-19.63.124Zm19.321-48.873 10.53-.067c4.593-.029 7.751-.916 9.473-2.66 1.809-1.745 2.701-4.611 2.676-8.597l-.025-3.9c-.025-3.987-.953-6.841-2.784-8.563-1.744-1.722-4.913-2.569-9.506-2.54l-10.53.067.166 26.26Z" fill="#fff"/><path fill="#2F2A95" d="M.445 90.105 1089.73.055l13.923 168.426L14.369 258.53z"/><path d="m97.659 215.522-7.5-21.295-24.746 2.046-3.771 22.226-19.693 1.628 17.01-92.456 27.467-2.27 31.962 88.407-20.729 1.714Zm-23.413-70.2-1.037.086-5.982 34.931 18.656-1.542-11.637-33.475Zm87.428 66.473c-12.092 1-21.411-2.317-27.955-9.951-6.465-7.727-10.312-19.018-11.54-33.874-1.228-14.856.716-26.583 5.831-35.18 5.195-8.691 13.839-13.536 25.931-14.536 4.664-.385 8.82-.077 12.469.926 3.727.909 6.979 2.38 9.756 4.411 2.777 2.032 5.118 4.577 7.023 7.638 1.992 3.052 3.627 6.526 4.906 10.421l-17.774 5.904c-.697-2.116-1.466-4.053-2.307-5.809-.841-1.757-1.876-3.237-3.106-4.44-1.144-1.21-2.565-2.092-4.263-2.647-1.619-.649-3.551-.881-5.797-.695-5.268.435-8.854 2.819-10.757 7.15-1.824 4.238-2.436 9.985-1.836 17.24l1.307 15.806c.599 7.256 2.15 12.867 4.652 16.834 2.582 3.874 6.506 5.593 11.775 5.158 4.492-.372 7.616-2.021 9.374-4.95 1.845-2.935 3.064-6.601 3.657-10.998l18.502 2.905c-.622 4.052-1.664 7.747-3.127 11.086-1.377 3.331-3.265 6.27-5.663 8.816-2.406 2.46-5.372 4.445-8.9 5.954-3.441 1.502-7.494 2.445-12.158 2.831Zm79.304-6.556c-12.093 1-21.411-2.317-27.955-9.951-6.466-7.727-10.312-19.018-11.54-33.874-1.228-14.856.715-26.583 5.831-35.18 5.195-8.691 13.839-13.536 25.931-14.536 4.664-.385 8.82-.077 12.468.926 3.728.909 6.98 2.38 9.757 4.411 2.777 2.032 5.118 4.578 7.023 7.638 1.992 3.053 3.627 6.526 4.905 10.421l-17.774 5.904c-.696-2.116-1.465-4.053-2.306-5.809-.841-1.757-1.877-3.237-3.106-4.44-1.144-1.209-2.565-2.092-4.263-2.647-1.619-.649-3.551-.881-5.797-.695-5.269.435-8.855 2.819-10.758 7.15-1.823 4.238-2.435 9.985-1.835 17.24l1.306 15.806c.6 7.256 2.151 12.867 4.653 16.834 2.581 3.874 6.506 5.593 11.775 5.158 4.491-.372 7.616-2.021 9.374-4.949 1.844-2.936 3.063-6.602 3.656-10.999l18.503 2.906c-.622 4.051-1.665 7.746-3.128 11.085-1.377 3.331-3.264 6.27-5.663 8.816-2.405 2.46-5.372 4.445-8.899 5.954-3.442 1.502-7.494 2.446-12.158 2.831Zm48.599-5.583-7.476-90.431 57.783-4.777 1.317 15.935-38.349 3.171 1.714 20.729 37.054-3.063 1.317 15.936-37.054 3.063 1.81 21.895 38.35-3.17 1.317 15.935-57.783 4.777Zm106.51-7.239c-7.601.628-14.312-.078-20.133-2.119-5.821-2.041-10.638-5.077-14.45-9.11l10.244-13.37c3.582 3.356 7.387 5.738 11.417 7.144 4.116 1.399 8.203 1.93 12.263 1.595 4.664-.386 8.12-1.715 10.367-3.988 2.247-2.273 3.21-5.352 2.888-9.239-.264-3.196-1.414-5.536-3.45-7.02-1.949-1.491-5.155-2.4-9.617-2.727l-9.586-.773c-8.234-.71-14.353-3.205-18.359-7.482-4.013-4.365-6.295-9.872-6.845-16.523-.721-8.723 1.572-15.696 6.88-20.918 5.301-5.308 13.09-8.387 23.369-9.236 6.996-.579 13.174-.002 18.535 1.728 5.361 1.731 9.793 4.322 13.296 7.772l-9.995 13.218a25.444 25.444 0 0 0-9.065-5.512c-3.411-1.283-7.189-1.754-11.335-1.411-8.724.721-12.789 4.666-12.196 11.835.257 3.11 1.399 5.363 3.428 6.761 2.115 1.39 5.407 2.292 9.877 2.705l9.597.903c7.448.688 13.334 2.984 17.657 6.888s6.781 9.44 7.374 16.609c.349 4.232-.06 8.223-1.228 11.972-1.176 3.663-3.121 6.954-5.837 9.874-2.722 2.834-6.182 5.164-10.379 6.989-4.111 1.819-9.017 2.963-14.717 3.435Zm79.304-6.556c-7.601.628-14.312-.078-20.133-2.119-5.822-2.041-10.638-5.077-14.45-9.11l10.243-13.37c3.582 3.357 7.388 5.738 11.418 7.144 4.115 1.399 8.203 1.931 12.263 1.595 4.664-.386 8.119-1.715 10.366-3.988 2.247-2.272 3.21-5.352 2.889-9.239-.264-3.196-1.414-5.536-3.45-7.02-1.95-1.491-5.155-2.4-9.617-2.727l-9.587-.772c-8.233-.711-14.353-3.206-18.359-7.483-4.013-4.365-6.294-9.872-6.844-16.523-.721-8.723 1.572-15.696 6.88-20.918 5.301-5.308 13.09-8.386 23.368-9.236 6.997-.579 13.175-.002 18.536 1.729 5.361 1.73 9.793 4.32 13.295 7.771l-9.995 13.218a25.426 25.426 0 0 0-9.065-5.512c-3.41-1.283-7.189-1.754-11.334-1.411-8.724.721-12.789 4.666-12.197 11.835.257 3.11 1.4 5.363 3.429 6.761 2.115 1.39 5.407 2.292 9.876 2.705l9.597.903c7.449.688 13.335 2.985 17.658 6.888 4.323 3.904 6.781 9.44 7.373 16.609.35 4.233-.059 8.223-1.228 11.972-1.175 3.663-3.121 6.954-5.836 9.875-2.722 2.833-6.182 5.163-10.379 6.988-4.111 1.819-9.017 2.963-14.717 3.435Zm51.449-5.819-1.189-14.381 19.434-1.606-5.098-61.67-19.434 1.606-1.189-14.38 58.302-4.82 1.188 14.38-19.433 1.607 5.098 61.67 19.434-1.607 1.188 14.381-58.301 4.82Zm72.087-97.009 31.742-2.624c8.896-.735 15.855.863 20.876 4.797 5.108 3.925 7.968 9.602 8.582 17.03.429 5.183-.524 9.436-2.858 12.759-2.255 3.23-5.701 5.733-10.337 7.507l.065.778c5.728.918 10.246 2.979 13.555 6.184 3.395 3.198 5.346 7.863 5.853 13.995.628 7.601-1.29 13.847-5.756 18.738-4.379 4.884-10.887 7.683-19.524 8.397l-34.722 2.871-7.476-90.432Zm35.113 74.45c4.665-.385 8.012-1.445 10.043-3.178 2.031-1.733 2.875-4.672 2.532-8.818l-.311-3.757c-.343-4.146-1.658-6.907-3.946-8.284-2.287-1.376-5.763-1.871-10.428-1.485l-9.846.813 2.11 25.523 9.846-.814Zm-5.642-38.275c4.578-.378 7.842-1.387 9.794-3.027 1.944-1.726 2.752-4.576 2.424-8.549l-.322-3.886c-.328-3.974-1.589-6.609-3.784-7.906-2.194-1.297-5.58-1.756-10.158-1.377l-7.385.61 2.046 24.746 7.385-.611Zm57.05 47.722-1.189-14.381 19.434-1.606-5.099-61.67-19.433 1.607-1.189-14.381 58.301-4.82 1.189 14.381-19.434 1.607 5.098 61.669 19.434-1.606 1.189 14.381-58.301 4.819Zm81.506-6.738-7.476-90.431 19.563-1.617 6.159 74.495 38.867-3.213 1.318 15.936-58.431 4.83Zm77.101-6.374-1.189-14.38 19.434-1.607-5.098-61.67-19.434 1.607-1.189-14.381 58.301-4.82 1.189 14.381-19.433 1.607 5.098 61.669 19.433-1.606 1.189 14.381-58.301 4.819Zm112.013-84.264 6.158 74.496-19.433 1.606-6.159-74.496-26.041 2.153-1.317-15.936 71.516-5.912 1.317 15.936-26.041 2.153ZM1022.1 139.1l-2.65-32.001-33.462-56.063 21.632-1.789 11.33 20.196 8.46 17.17 1.04-.085 5.53-18.328 7.85-21.78 20.86-1.725-23.81 60.798 2.65 32.001-19.43 1.606Z" fill="#fff"/></svg>